# xmcd
#
# Track frame offsets: 
#        150
#        22568
#        39367
#        56083
#        72669
#        86746
#        113137
#        131332
#        147919
#        169140
#        183112
#        202637
#        217054
#        235048
#        259143
#        279835
#        295045
#        308607
#        321628
#
# Disc length: 4491 seconds
#
# Revision: 0
# Processed by: cddbd v1.5.2PL0 Copyright (c) Steve Scherf et al.
# Submitted via: ExactAudioCopy v1.0b3
#
DISCID=0b118913
DTITLE=Różni Wykonawcy - Las Woda Blues 2015
DYEAR=2016
DGENRE=Blues
TTITLE0=01.Bartoccioni and Niedźwiedziński - Sadźcie drzewa
TTITLE1=02.Gruff - Mr Johnson
TTITLE2=03.Hubert Szczęsny Trio - The World Can't Stop Me
TTITLE3=04.Fingerstyle Bob and  Blues Society - Take All Love In Advance
TTITLE4=05.Czerwony Kogut_ - Powiedz mi
TTITLE5=06.Sexy Mama - Wolny jak ptak
TTITLE6=07.Jaw Raw  - Black Window
TTITLE7=08.Kłusem z Bluesem - Oh Baby
TTITLE8=09.Urlich Ellison and Tribe - Teardrops In The Rain
TTITLE9=10.Dirty Doctors - Waitin For The Bus
TTITLE10=11.Tomasz Nitribit and Ebony Faces - Mozambique
TTITLE11=12.Kraków Street Band - Save My Soul
TTITLE12=13.Adam Kulisz Trio - Gorzki Smak
TTITLE13=14.The Earl Thomas and The Royal Guard - Be Alright
TTITLE14=15.J.J.Band - Im Singing The Blues
TTITLE15=16.Gerry Jablonski % Electric Band - Trouble With The Blues
TTITLE16=17.Dieta Karen - Boogie
TTITLE17=18.Paulina Lenda and Kruki - Wonderlust
TTITLE18=19.Hot Tamales - Glance
EXTD=
EXTT0=
EXTT1=
EXTT2=
EXTT3=
EXTT4=
EXTT5=
EXTT6=
EXTT7=
EXTT8=
EXTT9=
EXTT10=
EXTT11=
EXTT12=
EXTT13=
EXTT14=
EXTT15=
EXTT16=
EXTT17=
EXTT18=
PLAYORDER=
